<?xml version="1.0" standalone="no"?>
<!DOCTYPE svg PUBLIC "-//W3C//DTD SVG 20010904//EN"
 "http://www.w3.org/TR/2001/REC-SVG-20010904/DTD/svg10.dtd">
<svg version="1.0" xmlns="http://www.w3.org/2000/svg"
 width="512.000000pt" height="512.000000pt" viewBox="0 0 512.000000 512.000000"
 preserveAspectRatio="xMidYMid meet">
<metadata>
Created by potrace 1.11, written by Peter Selinger 2001-2013
</metadata>
<g transform="translate(0.000000,512.000000) scale(0.100000,-0.100000)"
fill="#000000" stroke="none">
<path d="M2662 4839 l3 -234 254 -560 c221 -488 1181 -2625 1232 -2743 l18
-42 -261 2 -261 3 -161 370 c-89 204 -165 376 -169 383 -12 18 -645 18 -652 0
-3 -7 -4 -455 -3 -995 l3 -983 980 539 c877 483 981 543 987 568 4 15 30 215
58 443 27 228 111 914 185 1524 74 610 132 1113 128 1116 -5 4 -525 192 -1158
418 -632 226 -1158 414 -1168 418 -17 6 -18 -5 -15 -227z"/>
<path d="M310 4226 c0 -5 225 -1839 320 -2599 32 -263 60 -483 62 -488 2 -5
166 154 365 353 l361 363 171 380 c94 209 247 549 340 755 93 206 169 376 168
376 -1 1 -391 189 -867 419 -476 229 -877 424 -892 431 -16 8 -28 12 -28 10z"/>
<path d="M2571 3328 c-275 -635 -361 -837 -361 -847 0 -8 133 -11 456 -11 255
0 454 4 452 9 -29 77 -453 1041 -457 1041 -3 0 -44 -87 -90 -192z"/>
</g>
</svg>
